<svg width="16" height="16" viewBox="0 0 16 16" fill="none" xmlns="http://www.w3.org/2000/svg">
<path d="M11.3333 2H12.6667C13.403 2 14 2.59695 14 3.33333V4.66667M10 6L13.3333 2.66667M14 11.5694V12.6667C14 13.403 13.403 14 12.6667 14C6.77563 14 2 9.22437 2 3.33333C2 2.59695 2.59695 2 3.33333 2H4.43062C4.97583 2 5.46611 2.33194 5.66859 2.83815L6.21103 4.19424C6.46857 4.83809 6.18959 5.57187 5.56934 5.88199L5.33333 6C5.33333 6 5.66667 7.66667 7 9C8.33333 10.3333 10 10.6667 10 10.6667L10.118 10.4307C10.4281 9.81041 11.1619 9.53143 11.8058 9.78897L13.1619 10.3314C13.6681 10.5339 14 11.0242 14 11.5694Z" stroke="#5F40DC" stroke-width="1.2" stroke-linecap="round" stroke-linejoin="round"/>
</svg>
